<?xml version="1.0" standalone="no"?>
<!DOCTYPE svg PUBLIC "-//W3C//DTD SVG 20010904//EN"
 "http://www.w3.org/TR/2001/REC-SVG-20010904/DTD/svg10.dtd">
<svg version="1.0" xmlns="http://www.w3.org/2000/svg"
 width="256.000000pt" height="256.000000pt" viewBox="0 0 256.000000 256.000000"
 preserveAspectRatio="xMidYMid meet">
<metadata>
Created by potrace 1.14, written by Peter Selinger 2001-2017
</metadata>
<g transform="translate(0.000000,256.000000) scale(0.100000,-0.100000)"
fill="#000000" stroke="none">
<path d="M465 1940 c-11 -4 -31 -20 -45 -35 l-25 -27 -3 -338 c-2 -296 -1
-340 13 -353 16 -16 44 -13 57 7 4 6 8 155 8 332 0 235 3 323 12 332 15 15
1384 17 1408 2 13 -8 15 -89 15 -616 0 -439 -3 -611 -11 -623 -11 -15 -75 -16
-708 -16 -607 0 -698 2 -706 15 -5 8 -10 102 -10 207 l0 193 -25 6 c-51 13
-55 -1 -55 -215 0 -177 2 -199 20 -228 38 -63 6 -60 785 -59 391 1 717 5 725
9 8 4 26 24 40 44 l25 36 0 627 c0 588 -1 628 -18 654 -38 57 -24 56 -784 55
-384 0 -707 -4 -718 -9z"/>
<path d="M701 1684 c-24 -20 -31 -34 -31 -62 1 -47 22 -74 86 -105 67 -34 80
-50 57 -72 -17 -17 -68 -17 -130 1 -20 6 -23 3 -23 -24 0 -26 5 -32 35 -42 45
-15 123 -10 155 9 37 23 49 42 50 79 0 40 -32 75 -94 103 -24 10 -49 26 -56
34 -29 35 41 59 103 36 20 -8 25 -5 34 19 10 27 9 30 -20 39 -16 6 -54 11 -83
11 -42 0 -59 -5 -83 -26z"/>
<path d="M968 1698 c-3 -7 -4 -65 -3 -128 2 -126 11 -154 62 -181 39 -21 151
-18 186 5 45 30 51 52 53 189 l1 127 -37 0 -38 0 -3 -126 c-4 -140 -11 -154
-74 -154 -61 0 -69 16 -72 132 -1 56 -2 113 -2 126 -1 18 -7 22 -35 22 -19 0
-36 -6 -38 -12z"/>
<path d="M1359 1709 c-1 -2 -2 -77 -3 -166 -1 -102 3 -164 9 -166 5 -2 45 -3
87 -2 106 4 163 31 190 93 25 55 20 131 -9 170 -36 49 -77 65 -179 70 -52 2
-94 3 -95 1z m191 -84 c41 -37 35 -145 -10 -173 -24 -15 -82 -23 -96 -14 -6 4
-10 53 -10 111 l0 103 48 -4 c26 -3 57 -13 68 -23z"/>
<path d="M751 1132 c-55 -27 -75 -63 -79 -140 -4 -85 16 -128 79 -160 37 -20
55 -23 108 -19 101 8 150 55 156 153 5 88 -28 150 -93 175 -39 15 -134 10
-171 -9z m158 -66 c25 -27 34 -94 18 -139 -29 -84 -156 -71 -173 18 -9 47 3
102 27 126 29 29 99 26 128 -5z"/>
<path d="M1099 1148 c-5 -10 -5 -328 0 -329 3 -1 21 -3 39 -5 l32 -4 0 59 c0
40 5 62 15 71 18 15 15 18 71 -61 39 -56 49 -64 79 -65 19 -1 37 2 40 6 3 5
-22 48 -56 95 l-61 87 19 21 c116 130 115 127 65 127 -37 0 -45 -5 -106 -76
l-66 -75 0 75 0 76 -35 0 c-19 0 -36 -1 -36 -2z"/>
<path d="M1431 1034 c-1 -132 11 -174 58 -202 64 -39 185 -20 224 34 16 21 19
47 21 155 l2 130 -41 -3 -40 -3 -1 -110 c-1 -60 -2 -115 -3 -122 -4 -43 -86
-58 -121 -23 -18 18 -20 33 -20 140 l0 120 -39 0 -40 0 0 -116z"/>
</g>
</svg>
