<?xml version="1.0" standalone="no"?>
<!DOCTYPE svg PUBLIC "-//W3C//DTD SVG 20010904//EN"
 "http://www.w3.org/TR/2001/REC-SVG-20010904/DTD/svg10.dtd">
<svg version="1.0" xmlns="http://www.w3.org/2000/svg"
 width="225.000000pt" height="225.000000pt" viewBox="0 0 225.000000 225.000000"
 preserveAspectRatio="xMidYMid meet">
<metadata>
Created by potrace 1.14, written by Peter Selinger 2001-2017
</metadata>
<g transform="translate(0.000000,225.000000) scale(0.100000,-0.100000)"
fill="#000000" stroke="none">
<path d="M0 1125 l0 -1125 1125 0 1125 0 0 1125 0 1125 -1125 0 -1125 0 0
-1125z m557 739 c5 -15 7 -15 15 0 13 23 153 24 144 1 -3 -8 -1 -15 4 -15 6 0
10 7 10 15 0 8 5 15 10 15 6 0 10 -4 10 -10 0 -5 7 -10 15 -10 8 0 15 5 15 10
0 15 313 11 322 -4 6 -8 8 -8 8 1 0 9 94 12 375 13 l375 1 0 -296 0 -296 -170
2 c-94 1 -172 4 -174 8 -5 8 -48 7 -62 -2 -6 -3 -58 -6 -117 -6 l-107 -1 0 85
0 85 -105 0 -105 0 0 -335 0 -335 105 0 105 0 0 85 0 85 315 0 315 0 0 -295 0
-295 -557 -1 c-661 -1 -710 -1 -830 0 l-91 1 -1 205 -1 204 71 42 c84 49 202
130 196 135 -2 2 -59 -24 -128 -59 -68 -34 -127 -63 -131 -65 -5 -2 -8 16 -8
41 0 41 4 47 48 82 26 21 57 48 69 61 12 12 42 37 67 55 26 18 46 35 46 39 0
4 11 12 25 18 14 6 25 17 25 24 0 7 32 33 70 57 38 24 84 59 102 78 l32 33
-34 -12 c-19 -6 -80 -34 -135 -61 -55 -27 -116 -52 -135 -55 -19 -3 -65 -20
-102 -39 -37 -18 -70 -33 -73 -33 -3 0 -5 49 -5 110 l0 110 28 6 c38 9 77 30
105 57 14 12 56 44 95 72 39 27 70 51 68 52 -1 1 -37 -15 -80 -37 -43 -22 -83
-40 -89 -40 -7 0 -34 -11 -61 -25 -27 -13 -53 -22 -58 -19 -5 3 -8 65 -7 137
l1 132 47 102 46 102 38 1 c26 0 40 -5 44 -16z"/>
<path d="M720 1550 c-8 -5 -12 -12 -9 -15 4 -3 12 1 19 10 14 17 11 19 -10 5z"/>
</g>
</svg>
